<?xml version="1.0" encoding="iso-8859-1"?>
<!-- Generator: Adobe Illustrator 19.0.0, SVG Export Plug-In . SVG Version: 6.00 Build 0)  -->
<svg version="1.1" id="Layer_1" xmlns="http://www.w3.org/2000/svg" xmlns:xlink="http://www.w3.org/1999/xlink" x="0px" y="0px"
	 viewBox="0 0 512.001 512.001" style="enable-background:new 0 0 512.001 512.001;" xml:space="preserve">
<g>
	<g>
		<g>
			<path d="M494.793,107.521H280.632c-6.617-6.503-15.317-10.07-24.632-10.07c-9.325,0-18.035,3.575-24.654,10.092
				c-0.193-0.015-0.388-0.022-0.584-0.022H17.207C7.719,107.521,0,115.24,0,124.728v0.151c0,20.015,16.283,36.297,36.297,36.297
				h2.674c-0.095,0.729-0.144,1.473-0.144,2.229v0.151c0,20.015,16.283,36.297,36.297,36.297h2.669
				c-0.092,0.717-0.139,1.447-0.139,2.188v0.151c0,20.015,16.283,36.297,36.297,36.297h88.172c4.142,0,7.5-3.358,7.5-7.5
				c0-4.142-3.358-7.5-7.5-7.5h-88.172c-11.744,0-21.297-9.554-21.297-21.297v-0.151c0-1.119,0.836-2.045,1.917-2.188h9.997
				c0.181,0,0.36-0.006,0.538-0.019h20.817c4.142,0,7.5-3.358,7.5-7.5c0-4.142-3.358-7.5-7.5-7.5h-31.06
				c-0.273,0-0.544,0.006-0.813,0.019H75.125c-11.743,0-21.297-9.554-21.297-21.297v-0.151c0-1.217,0.99-2.207,2.207-2.207h135.898
				c4.142,0,7.5-3.358,7.5-7.5c0-4.142-3.358-7.5-7.5-7.5H66.314c-0.189-0.014-0.38-0.021-0.572-0.021H36.297
				C24.553,146.177,15,136.623,15,124.88v-0.151c0-1.217,0.99-2.207,2.207-2.207h205.051c-1.152,3.824-1.652,7.865-1.451,11.994
				l2.445,50.319h-71.116c-4.142,0-7.5,3.358-7.5,7.5c0,4.142,3.358,7.5,7.5,7.5h71.845l5.916,121.754h-18.549
				c-20.193,0-36.621,16.479-36.621,36.735c0,10.328,4.372,20.238,11.994,27.188c3.061,2.791,7.804,2.573,10.596-0.488
				c2.791-3.061,2.572-7.804-0.488-10.595c-4.513-4.116-7.102-9.986-7.102-16.105c0-11.985,9.699-21.735,21.621-21.735h19.277
				l2.112,43.471h-1.976c-20.193,0-36.621,16.479-36.621,36.735c0,15.54,9.808,29.46,24.406,34.64
				c3.902,1.384,8.191-0.656,9.576-4.561c1.385-3.903-0.657-8.191-4.561-9.576c-8.626-3.061-14.422-11.3-14.422-20.503
				c0-11.984,9.699-21.735,21.621-21.735h2.705l4.862,100.072C238.789,504.59,246.551,512,256,512c9.449,0,17.212-7.41,17.671-16.87
				l4.862-100.071h22.119c20.193,0,36.621-16.479,36.621-36.735c0-2.192-0.194-4.388-0.578-6.526
				c-0.73-4.078-4.625-6.789-8.706-6.058c-4.077,0.731-6.789,4.629-6.058,8.707c0.227,1.266,0.342,2.57,0.342,3.877
				c0,11.985-9.699,21.735-21.621,21.735h-21.39l2.111-43.471h37.722c20.193,0,36.621-16.479,36.621-36.735
				s-16.428-36.735-36.621-36.735c-4.143,0-7.5,3.358-7.5,7.5c0,4.142,3.357,7.5,7.5,7.5c11.922,0,21.621,9.75,21.621,21.735
				s-9.699,21.735-21.621,21.735h-36.992l5.916-121.754h77.912c4.143,0,7.5-3.358,7.5-7.5c0-4.142-3.357-7.5-7.5-7.5h-77.184
				l2.445-50.319c0.201-4.13-0.299-8.17-1.451-11.995h205.051c1.217,0,2.207,0.99,2.207,2.207v0.151
				c0,11.744-9.554,21.297-21.298,21.297h-21.679c-0.192,0-0.384,0.007-0.572,0.021H318.125c-4.143,0-7.5,3.358-7.5,7.5
				c0,4.142,3.357,7.5,7.5,7.5h137.84c1.217,0,2.207,0.99,2.207,2.207v0.151c0,11.744-9.555,21.297-21.298,21.297H417.95
				c-0.27-0.013-0.541-0.019-0.813-0.019h-22.569c-4.143,0-7.5,3.358-7.5,7.5c0,4.142,3.357,7.5,7.5,7.5h0.676
				c0.178,0.013,0.357,0.019,0.538,0.019h21.646c1.08,0.143,1.917,1.069,1.917,2.188v0.151c0,11.743-9.554,21.297-21.298,21.297
				h-89.628c-4.143,0-7.5,3.358-7.5,7.5c0,4.142,3.357,7.5,7.5,7.5h89.628c20.015,0,36.298-16.283,36.298-36.297v-0.151
				c0-0.741-0.047-1.471-0.139-2.188h2.669c20.015,0,36.298-16.283,36.298-36.297v-0.151c0-0.755-0.049-1.499-0.144-2.229h2.674
				c20.015,0,36.298-16.283,36.298-36.297v-0.151C512,115.24,504.281,107.521,494.793,107.521z M258.688,494.404
				C258.618,495.86,257.436,497,256,497c-1.437,0-2.618-1.141-2.689-2.598l-4.827-99.343h15.032L258.688,494.404z M264.244,380.059
				h-16.489l-2.112-43.471h20.713L264.244,380.059z M267.086,321.589h-22.172l-9.125-187.801
				c-0.274-5.637,1.713-10.987,5.597-15.063c3.853-4.045,9.043-6.272,14.614-6.272c5.571,0,10.762,2.228,14.614,6.272
				c3.883,4.077,5.871,9.426,5.597,15.063L267.086,321.589z"/>
			<path d="M256,84.84c23.315,0,42.283-19.029,42.283-42.42S279.315,0,256,0s-42.284,19.029-42.284,42.42S232.685,84.84,256,84.84z
				 M256,15c15.044,0,27.283,12.3,27.283,27.42S271.044,69.84,256,69.84s-27.284-12.3-27.284-27.42S240.956,15,256,15z"/>
			<path d="M306.847,400.962c-3.958,1.222-6.176,5.421-4.953,9.379c0.642,2.078,0.967,4.25,0.967,6.455
				c0,9.203-5.796,17.442-14.422,20.503c-3.905,1.385-5.946,5.673-4.561,9.576c1.09,3.075,3.982,4.994,7.068,4.994
				c0.832,0,1.679-0.14,2.508-0.434c14.598-5.18,24.406-19.1,24.406-34.64c0-3.707-0.55-7.367-1.635-10.88
				C315.003,401.957,310.804,399.738,306.847,400.962z"/>
			<path d="M177.778,315.385c-4.189-4.123-6.496-9.639-6.496-15.532c0-11.985,9.699-21.735,21.621-21.735c4.142,0,7.5-3.358,7.5-7.5
				c0-4.142-3.358-7.5-7.5-7.5c-20.193,0-36.621,16.479-36.621,36.735c0,9.944,3.897,19.256,10.974,26.222
				c1.461,1.438,3.362,2.155,5.261,2.155c1.939,0,3.878-0.748,5.346-2.239C180.769,323.039,180.731,318.291,177.778,315.385z"/>
		</g>
	</g>
</g>
<g>
</g>
<g>
</g>
<g>
</g>
<g>
</g>
<g>
</g>
<g>
</g>
<g>
</g>
<g>
</g>
<g>
</g>
<g>
</g>
<g>
</g>
<g>
</g>
<g>
</g>
<g>
</g>
<g>
</g>
</svg>
